; NON-PLATED HOLES START AT T1
; THROUGH (PLATED) HOLES START AT T100
M48
INCH
T1C0.035433
T100C0.035433
T101C0.038000
T102C0.015748
T103C0.044584
T104C0.041000
T105C0.040000
T106C0.035000
%
T1
X016575Y001422
X016575Y003154
T100
X015765Y008514
T101
X017756Y006517
X013756Y001517
X017756Y009517
X017756Y010517
X017756Y008517
X017756Y007517
X013756Y002517
T102
X004753Y007522
X003263Y004914
X001760Y004514
X004753Y009523
X007756Y008517
X002755Y008521
T103
X002756Y003518
X000762Y007518
X002756Y005517
X002756Y001517
X000762Y001517
X000762Y003518
X000762Y005517
X002756Y011518
X002756Y009517
X002756Y007518
X000762Y009517
X000762Y011518
T104
X013756Y007517
X011756Y007517
X012756Y009517
T105
X016756Y006517
X014756Y011017
X016756Y010517
X015756Y011017
X016756Y008517
X012306Y006167
X004756Y005017
X006756Y005017
X016756Y009517
X016756Y005517
X013756Y011017
X014756Y005017
X009756Y011017
X010756Y011017
X011756Y011017
X007756Y011017
X004756Y011017
X013756Y005017
X009756Y005017
X012756Y005017
X010756Y005017
X005756Y005017
X006756Y011017
X007206Y006167
X015756Y005017
X011306Y006167
X008756Y011017
X012756Y011017
X011756Y005017
X008206Y006167
X005756Y011017
X008756Y005017
X016756Y007517
X007756Y005017
T106
X005756Y003517
X015818Y012615
X006756Y003517
X011818Y012615
X007756Y003517
X010818Y012615
X016818Y012615
X008756Y001517
X009818Y012615
X007818Y012615
X002818Y012615
X004756Y003517
X005756Y001517
X010756Y001517
X003818Y012615
X009756Y003517
X014818Y012615
X012818Y012615
X006818Y012615
X005818Y012615
X017818Y012615
X011756Y001517
X006756Y001517
X013818Y012615
X004818Y012615
X007756Y001517
X009756Y001517
X004756Y001517
X008756Y003517
X008818Y012615
T00
M30
