G04 MADE WITH FRITZING*
G04 WWW.FRITZING.ORG*
G04 DOUBLE SIDED*
G04 HOLES PLATED*
G04 CONTOUR ON CENTER OF CONTOUR VECTOR*
%ASAXBY*%
%FSLAX23Y23*%
%MOIN*%
%OFA0B0*%
%SFA1.0B1.0*%
%ADD10C,0.075000*%
%ADD11C,0.065418*%
%ADD12C,0.039370*%
%ADD13C,0.078000*%
%ADD14C,0.075433*%
%ADD15C,0.099000*%
%ADD16C,0.074000*%
%ADD17R,0.075000X0.075000*%
%ADD18R,0.070866X0.106299*%
%ADD19R,0.098425X0.019685*%
%ADD20R,0.098425X0.078740*%
%ADD21R,0.078000X0.078000*%
%ADD22R,0.099000X0.099000*%
%ADD23C,0.024000*%
%ADD24C,0.032000*%
%ADD25C,0.048000*%
%ADD26C,0.012000*%
%LNCOPPER1*%
G90*
G70*
G54D10*
X1782Y1262D03*
X1682Y1262D03*
X1582Y1262D03*
X1482Y1262D03*
X1382Y1262D03*
X1282Y1262D03*
X1182Y1262D03*
X1082Y1262D03*
X982Y1262D03*
X882Y1262D03*
X782Y1262D03*
X682Y1262D03*
X582Y1262D03*
X482Y1262D03*
X382Y1262D03*
X282Y1262D03*
X1782Y1262D03*
X1682Y1262D03*
X1582Y1262D03*
X1482Y1262D03*
X1382Y1262D03*
X1282Y1262D03*
X1182Y1262D03*
X1082Y1262D03*
X982Y1262D03*
X882Y1262D03*
X782Y1262D03*
X682Y1262D03*
X582Y1262D03*
X482Y1262D03*
X382Y1262D03*
X282Y1262D03*
X476Y152D03*
X576Y152D03*
X676Y152D03*
X476Y352D03*
X576Y352D03*
X676Y352D03*
X776Y352D03*
X876Y352D03*
X976Y352D03*
X1176Y152D03*
X1076Y152D03*
G54D11*
X276Y152D03*
X76Y152D03*
X276Y352D03*
X76Y352D03*
X276Y952D03*
X76Y952D03*
X276Y1152D03*
X76Y1152D03*
X276Y552D03*
X76Y552D03*
X276Y752D03*
X76Y752D03*
G54D12*
X326Y491D03*
X176Y451D03*
G54D13*
X1376Y252D03*
X1376Y152D03*
X1376Y252D03*
X1376Y152D03*
G54D14*
X776Y852D03*
X475Y752D03*
X475Y952D03*
G54D12*
X276Y852D03*
G54D13*
X1776Y1052D03*
X1776Y952D03*
X1776Y852D03*
X1776Y752D03*
X1776Y652D03*
X1776Y1052D03*
X1776Y952D03*
X1776Y852D03*
X1776Y752D03*
X1776Y652D03*
G54D15*
X1176Y752D03*
X1376Y752D03*
X1276Y952D03*
X1176Y752D03*
X1376Y752D03*
X1276Y952D03*
G54D16*
X1676Y552D03*
X1676Y652D03*
X1676Y752D03*
X1676Y852D03*
X1676Y952D03*
X1676Y1052D03*
X1131Y617D03*
X1231Y617D03*
X721Y617D03*
X821Y617D03*
X1576Y502D03*
X1476Y502D03*
X1376Y502D03*
X1276Y502D03*
X1176Y502D03*
X1076Y502D03*
X976Y502D03*
X876Y502D03*
X776Y502D03*
X676Y502D03*
X576Y502D03*
X476Y502D03*
X476Y1102D03*
X576Y1102D03*
X676Y1102D03*
X776Y1102D03*
X876Y1102D03*
X976Y1102D03*
X1076Y1102D03*
X1176Y1102D03*
X1276Y1102D03*
X1376Y1102D03*
X1476Y1102D03*
X1576Y1102D03*
G54D14*
X1577Y851D03*
G54D12*
X1476Y951D03*
G54D13*
X876Y152D03*
X776Y152D03*
G54D17*
X1782Y1262D03*
X1782Y1262D03*
G54D18*
X602Y952D03*
X776Y952D03*
X902Y852D03*
X1076Y852D03*
X602Y752D03*
X776Y752D03*
G54D17*
X1176Y152D03*
G54D19*
X1559Y229D03*
X1559Y197D03*
X1559Y292D03*
X1559Y260D03*
G54D20*
X1776Y406D03*
X1776Y52D03*
X1559Y406D03*
X1559Y52D03*
G54D19*
X1559Y166D03*
G54D21*
X1376Y252D03*
X1376Y252D03*
G54D22*
X1376Y752D03*
X1376Y752D03*
G54D23*
X76Y985D02*
X76Y1118D01*
D02*
X76Y718D02*
X76Y585D01*
D02*
X76Y318D02*
X76Y185D01*
D02*
X376Y651D02*
X408Y420D01*
D02*
X408Y420D02*
X455Y372D01*
D02*
X374Y1153D02*
X376Y651D01*
D02*
X309Y1152D02*
X374Y1153D01*
D02*
X676Y180D02*
X676Y323D01*
G54D24*
D02*
X977Y52D02*
X877Y52D01*
D02*
X676Y51D02*
X676Y118D01*
G54D23*
D02*
X276Y185D02*
X276Y318D01*
D02*
X276Y718D02*
X276Y585D01*
D02*
X276Y1118D02*
X276Y985D01*
D02*
X560Y376D02*
X493Y476D01*
D02*
X879Y420D02*
X625Y421D01*
D02*
X625Y421D02*
X592Y475D01*
D02*
X877Y380D02*
X879Y420D01*
D02*
X194Y456D02*
X308Y487D01*
G54D24*
D02*
X1293Y358D02*
X1447Y479D01*
D02*
X1193Y181D02*
X1293Y358D01*
G54D23*
D02*
X1260Y475D02*
X1090Y177D01*
D02*
X805Y852D02*
X873Y852D01*
D02*
X573Y752D02*
X504Y752D01*
D02*
X573Y952D02*
X504Y952D01*
D02*
X1076Y899D02*
X1076Y952D01*
D02*
X1076Y952D02*
X806Y952D01*
D02*
X1076Y752D02*
X806Y752D01*
D02*
X1076Y804D02*
X1076Y752D01*
G54D25*
D02*
X1106Y852D02*
X1537Y851D01*
D02*
X1576Y811D02*
X1576Y544D01*
G54D23*
D02*
X1776Y372D02*
X1776Y86D01*
D02*
X1732Y52D02*
X1603Y52D01*
G54D24*
D02*
X1293Y358D02*
X1376Y352D01*
D02*
X1476Y357D02*
X1554Y296D01*
G54D23*
D02*
X1728Y185D02*
X1676Y451D01*
D02*
X1676Y451D02*
X1603Y488D01*
D02*
X1597Y170D02*
X1728Y185D01*
G54D24*
D02*
X1476Y357D02*
X1476Y46D01*
D02*
X1476Y46D02*
X1516Y49D01*
D02*
X1476Y352D02*
X1516Y378D01*
D02*
X977Y52D02*
X1175Y52D01*
D02*
X1175Y52D02*
X1176Y118D01*
G54D23*
D02*
X176Y552D02*
X176Y851D01*
D02*
X176Y851D02*
X257Y852D01*
D02*
X75Y451D02*
X176Y552D01*
D02*
X76Y385D02*
X75Y451D01*
D02*
X1776Y440D02*
X1776Y622D01*
D02*
X1476Y651D02*
X1398Y729D01*
D02*
X1476Y533D02*
X1476Y651D01*
D02*
X1307Y676D02*
X1203Y736D01*
D02*
X1314Y570D02*
X1307Y676D01*
D02*
X1291Y529D02*
X1314Y570D01*
D02*
X309Y152D02*
X447Y152D01*
D02*
X1378Y1187D02*
X1380Y1233D01*
D02*
X1780Y1183D02*
X1378Y1187D01*
D02*
X1781Y1233D02*
X1780Y1183D01*
D02*
X1376Y352D02*
X1376Y282D01*
G54D24*
D02*
X1376Y352D02*
X1476Y357D01*
G54D23*
D02*
X977Y52D02*
X976Y323D01*
G54D26*
D02*
X1488Y956D02*
X1610Y1004D01*
D02*
X1737Y1004D02*
X1760Y1033D01*
D02*
X1611Y1004D02*
X1737Y1004D01*
G54D23*
D02*
X1378Y1187D02*
X1300Y1122D01*
D02*
X877Y52D02*
X876Y122D01*
G54D24*
D02*
X877Y52D02*
X676Y51D01*
G04 End of Copper1*
M02*